<?xml version="1.0" encoding="UTF-8" standalone="no"?>
<!-- Created with Inkscape (http://www.inkscape.org/) -->

<svg
   width="210mm"
   height="297mm"
   viewBox="0 0 210 297"
   version="1.1"
   id="svg1"
   inkscape:version="1.3.2 (091e20e, 2023-11-25)"
   sodipodi:docname="babylon.svg"
   xml:space="preserve"
   xmlns:inkscape="http://www.inkscape.org/namespaces/inkscape"
   xmlns:sodipodi="http://sodipodi.sourceforge.net/DTD/sodipodi-0.dtd"
   xmlns="http://www.w3.org/2000/svg"
   xmlns:svg="http://www.w3.org/2000/svg"><sodipodi:namedview
     id="namedview1"
     pagecolor="#505050"
     bordercolor="#eeeeee"
     borderopacity="1"
     inkscape:showpageshadow="0"
     inkscape:pageopacity="0"
     inkscape:pagecheckerboard="0"
     inkscape:deskcolor="#505050"
     inkscape:document-units="mm"
     inkscape:zoom="1.1118412"
     inkscape:cx="-215.85816"
     inkscape:cy="418.22518"
     inkscape:window-width="3440"
     inkscape:window-height="1387"
     inkscape:window-x="0"
     inkscape:window-y="1105"
     inkscape:window-maximized="1"
     inkscape:current-layer="layer1" /><defs
     id="defs1"><inkscape:path-effect
       effect="mirror_symmetry"
       start_point="105,-108.44909"
       end_point="105,412.50243"
       center_point="105,152.02667"
       id="path-effect13"
       is_visible="true"
       lpeversion="1.2"
       lpesatellites=""
       mode="vertical"
       discard_orig_path="false"
       fuse_paths="false"
       oposite_fuse="false"
       split_items="false"
       split_open="false"
       link_styles="false" /><inkscape:path-effect
       effect="mirror_symmetry"
       start_point="105,-8.331126"
       end_point="105,288.66887"
       center_point="105,140.16887"
       id="path-effect12"
       is_visible="true"
       lpeversion="1.2"
       lpesatellites=""
       mode="vertical"
       discard_orig_path="false"
       fuse_paths="false"
       oposite_fuse="false"
       split_items="false"
       split_open="false"
       link_styles="false" /><inkscape:path-effect
       effect="tiling"
       id="path-effect11"
       is_visible="true"
       lpeversion="1"
       unit="px"
       seed="1;1"
       lpesatellites=""
       num_rows="3"
       num_cols="1"
       gapx="0"
       gapy="22"
       offset="0"
       offset_type="false"
       scale="0"
       rotate="0"
       mirrorrowsx="false"
       mirrorrowsy="false"
       mirrorcolsx="false"
       mirrorcolsy="false"
       mirrortrans="false"
       shrink_interp="false"
       split_items="false"
       link_styles="false"
       interpolate_scalex="false"
       interpolate_scaley="true"
       interpolate_rotatex="false"
       interpolate_rotatey="true"
       random_scale="false"
       random_rotate="false"
       random_gap_y="false"
       random_gap_x="false"
       transformorigin="" /><inkscape:path-effect
       effect="tiling"
       id="path-effect10"
       is_visible="true"
       lpeversion="1"
       unit="px"
       seed="1;1"
       lpesatellites=""
       num_rows="4"
       num_cols="2"
       gapx="26"
       gapy="72"
       offset="0"
       offset_type="false"
       scale="0"
       rotate="0"
       mirrorrowsx="false"
       mirrorrowsy="false"
       mirrorcolsx="false"
       mirrorcolsy="false"
       mirrortrans="false"
       shrink_interp="false"
       split_items="false"
       link_styles="false"
       interpolate_scalex="false"
       interpolate_scaley="true"
       interpolate_rotatex="false"
       interpolate_rotatey="true"
       random_scale="false"
       random_rotate="false"
       random_gap_y="false"
       random_gap_x="false"
       transformorigin="" /><inkscape:path-effect
       effect="simplify"
       id="path-effect9"
       is_visible="true"
       lpeversion="1.3"
       threshold="16.334898"
       steps="1"
       smooth_angles="360"
       helper_size="10"
       simplify_individual_paths="false"
       simplify_just_coalesce="false" /><inkscape:path-effect
       effect="mirror_symmetry"
       start_point="105,-108.44909"
       end_point="105,412.50243"
       center_point="105,152.02667"
       id="path-effect8"
       is_visible="true"
       lpeversion="1.2"
       lpesatellites=""
       mode="vertical"
       discard_orig_path="false"
       fuse_paths="false"
       oposite_fuse="false"
       split_items="false"
       split_open="false"
       link_styles="false" /><inkscape:path-effect
       effect="tiling"
       id="path-effect7"
       is_visible="true"
       lpeversion="1"
       unit="px"
       seed="1;1"
       lpesatellites=""
       num_rows="1"
       num_cols="7"
       gapx="1"
       gapy="0"
       offset="0"
       offset_type="false"
       scale="0"
       rotate="0"
       mirrorrowsx="false"
       mirrorrowsy="false"
       mirrorcolsx="false"
       mirrorcolsy="false"
       mirrortrans="false"
       shrink_interp="false"
       split_items="false"
       link_styles="false"
       interpolate_scalex="false"
       interpolate_scaley="true"
       interpolate_rotatex="false"
       interpolate_rotatey="true"
       random_scale="false"
       random_rotate="false"
       random_gap_y="false"
       random_gap_x="false"
       transformorigin="" /><inkscape:path-effect
       effect="mirror_symmetry"
       start_point="105,0"
       end_point="105,297"
       center_point="105,148.5"
       id="path-effect6"
       is_visible="true"
       lpeversion="1.2"
       lpesatellites=""
       mode="vertical"
       discard_orig_path="false"
       fuse_paths="false"
       oposite_fuse="false"
       split_items="false"
       split_open="false"
       link_styles="false" /><inkscape:path-effect
       effect="tiling"
       id="path-effect5"
       is_visible="true"
       lpeversion="1"
       unit="px"
       seed="1;1"
       lpesatellites=""
       num_rows="1"
       num_cols="20"
       gapx="4"
       gapy="0"
       offset="0"
       offset_type="false"
       scale="0"
       rotate="0"
       mirrorrowsx="false"
       mirrorrowsy="false"
       mirrorcolsx="false"
       mirrorcolsy="false"
       mirrortrans="false"
       shrink_interp="false"
       split_items="false"
       link_styles="false"
       interpolate_scalex="false"
       interpolate_scaley="true"
       interpolate_rotatex="false"
       interpolate_rotatey="true"
       random_scale="false"
       random_rotate="false"
       random_gap_y="false"
       random_gap_x="false"
       transformorigin="matrix(0.77016129,0,0,1,-24.597162,0)" /><inkscape:path-effect
       effect="tiling"
       id="path-effect4"
       is_visible="false"
       lpeversion="1"
       unit="px"
       seed="1;1"
       lpesatellites=""
       num_rows="1"
       num_cols="3"
       gapx="40"
       gapy="0"
       offset="0"
       offset_type="false"
       scale="0"
       rotate="0"
       mirrorrowsx="false"
       mirrorrowsy="false"
       mirrorcolsx="false"
       mirrorcolsy="false"
       mirrortrans="false"
       shrink_interp="false"
       split_items="false"
       link_styles="false"
       interpolate_scalex="false"
       interpolate_scaley="true"
       interpolate_rotatex="false"
       interpolate_rotatey="true"
       random_scale="false"
       random_rotate="false"
       random_gap_y="false"
       random_gap_x="false"
       transformorigin="" /><inkscape:path-effect
       effect="clone_original"
       linkeditem=""
       id="path-effect3"
       is_visible="true"
       lpeversion="1"
       method="d"
       attributes=""
       css_properties=""
       allow_transforms="true" /><inkscape:path-effect
       effect="fillet_chamfer"
       id="path-effect1"
       is_visible="true"
       lpeversion="1"
       nodesatellites_param="F,0,0,1,0,31.75,0,1 @ F,0,0,1,0,31.75,0,1 @ F,0,0,1,0,31.75,0,1 @ F,0,0,1,0,31.75,0,1"
       radius="120"
       unit="px"
       method="auto"
       mode="F"
       chamfer_steps="1"
       flexible="false"
       use_knot_distance="true"
       apply_no_radius="true"
       apply_with_radius="true"
       only_selected="false"
       hide_knots="false" /></defs><g
     inkscape:label="Layer 1"
     inkscape:groupmode="layer"
     id="layer1"><path
       id="rect2"
       style="display:inline;fill:#153274;fill-opacity:1;stroke:#865900;stroke-width:0.570111;stroke-dasharray:none;stroke-opacity:1"
       d="m 54.166205,114.2069 -1.161364,3.45375 v 69.26289 h 38.660275 l -0.120202,-35.85903 c -0.06535,-13.31657 6.024003,-18.54855 13.454966,-18.54853 7.36458,0.11894 13.28096,5.35056 13.21457,18.54853 l 0.1202,35.85903 h 38.66057 v -69.26289 l -1.16137,-3.45375 h -2.29856 l -1.16137,3.45375 h -0.60867 l -1.16137,-3.45375 h -2.29856 l -1.16137,3.45375 h -0.60867 l -1.16136,-3.45375 h -2.29857 l -1.16137,3.45375 h -0.60866 l -1.16137,-3.45375 h -2.29857 l -1.16136,3.45375 h -0.60867 l -1.16137,-3.45375 h -2.29856 l -1.16137,3.45375 h -0.60867 l -1.16136,-3.45375 h -2.29857 l -1.16137,3.45375 h -0.60866 l -1.16137,-3.45375 h -2.29857 l -1.16136,3.45375 h -0.60867 l -1.16137,-3.45375 h -2.29856 l -1.16137,3.45375 h -0.60867 l -1.16136,-3.45375 h -2.29857 l -1.16137,3.45375 h -0.60866 l -1.16137,-3.45375 h -2.29857 l -1.16136,3.45375 h -0.60868 l -1.16136,-3.45375 h -2.29857 l -1.16136,3.45375 h -0.60867 l -1.161364,-3.45375 h -2.298275 l -1.161364,3.45375 h -0.608965 l -1.161364,-3.45375 h -2.298274 l -1.161364,3.45375 h -0.608965 l -1.161363,-3.45375 h -2.298275 l -1.161364,3.45375 h -0.60867 L 82.614609,114.2069 H 80.31604 l -1.161364,3.45375 h -0.60867 l -1.161364,-3.45375 h -2.298569 l -1.161364,3.45375 h -0.60867 l -1.161364,-3.45375 h -2.298569 l -1.161364,3.45375 h -0.60867 l -1.161364,-3.45375 h -2.298569 l -1.161364,3.45375 h -0.60867 l -1.161364,-3.45375 h -2.298569 l -1.161364,3.45375 h -0.60867 l -1.161364,-3.45375 z"
       sodipodi:nodetypes="cccccccccccccccccccccccccccccccccccccccccccccccccccccccccccccccccccccccccccccccccccccccc"
       sodipodi:insensitive="true" /><path
       id="rect5"
       style="display:inline;fill:#122c68;fill-opacity:1;stroke:#865900;stroke-width:1;stroke-dasharray:none;stroke-opacity:1"
       d="M 2.4014038,68.222709 0.32401123,73.806348 V 219.4233 H 52.581287 V 73.806348 L 50.503894,68.222709 H 47.44775 l -2.077393,5.583639 h -0.297139 l -2.076876,-5.583639 h -3.056661 l -2.076876,5.583639 h -0.297139 l -2.077393,-5.583639 h -3.056144 l -2.077393,5.583639 h -0.296622 l -2.077393,-5.583639 h -3.056144 l -2.077393,5.583639 h -0.297139 l -2.076876,-5.583639 h -3.056661 l -2.076876,5.583639 H 15.042493 L 12.9651,68.222709 H 9.9089559 L 7.8315633,73.806348 H 7.5349406 L 5.457548,68.222709 Z m 205.1971962,0 2.07739,5.583639 V 219.4233 H 157.41871 V 73.806348 l 2.0774,-5.583639 h 3.05614 l 2.07739,5.583639 h 0.29714 l 2.07688,-5.583639 h 3.05666 l 2.07687,5.583639 h 0.29714 l 2.0774,-5.583639 h 3.05614 l 2.07739,5.583639 h 0.29663 l 2.07739,-5.583639 h 3.05614 l 2.0774,5.583639 h 0.29713 l 2.07688,-5.583639 h 3.05666 l 2.07688,5.583639 h 0.29714 l 2.07739,-5.583639 h 3.05614 l 2.0774,5.583639 h 0.29662 l 2.07739,-5.583639 z"
       transform="matrix(0.57011063,0,0,0.57011063,45.138384,61.827981)" /><path
       style="fill:#865900;fill-opacity:1;stroke-width:0.223046"
       d="m 60.193482,136.65884 c -0.0067,-0.026 -0.118692,-0.76954 -0.248962,-1.6524 -0.13027,-0.88285 -0.24143,-1.62575 -0.247019,-1.65088 -0.0085,-0.0383 -0.02003,-0.023 -0.07113,0.0944 -0.174304,0.40064 -0.393375,0.60722 -1.099821,1.03714 -0.353082,0.21487 -0.454411,0.34254 -0.658577,0.82979 -0.12187,0.29085 -0.232436,0.45803 -0.369404,0.55858 -0.11976,0.0879 -0.127402,0.0806 -0.04478,-0.0426 0.129617,-0.19339 0.146013,-0.2704 0.149807,-0.70367 0.0053,-0.60562 0.104341,-0.85861 0.497805,-1.27164 0.344388,-0.3615 0.459339,-0.65287 0.398914,-1.01112 -0.0308,-0.18262 0.03319,-0.19448 -0.860425,0.1595 -1.743736,0.69074 -2.223387,0.87793 -2.230726,0.87059 -0.01169,-0.0117 0.117862,-0.11924 1.372271,-1.13946 0.63877,-0.51951 1.171302,-0.95651 1.183402,-0.97111 0.01874,-0.0226 -0.02323,-0.0265 -0.283269,-0.0265 -0.421296,0 -0.570011,-0.0468 -1.119182,-0.35201 -0.509401,-0.28313 -0.631102,-0.3088 -1.150081,-0.24261 -0.357284,0.0456 -0.51454,0.0411 -0.675778,-0.0192 -0.184337,-0.069 -0.185327,-0.0856 -0.0047,-0.0788 0.233569,0.009 0.429473,-0.0557 0.650041,-0.21413 0.369861,-0.26572 0.874469,-0.34217 1.371226,-0.20774 0.431249,0.1167 0.747218,0.0731 1.03393,-0.14279 0.07011,-0.0528 0.127471,-0.10764 0.127471,-0.1219 0,-0.0142 -0.562995,-0.48206 -1.251101,-1.03957 -1.441499,-1.1679 -1.338635,-1.08016 -1.203891,-1.02688 0.05712,0.0226 0.133607,0.052 0.169961,0.0653 0.03635,0.0134 0.423014,0.16581 0.859247,0.33878 0.905331,0.35897 1.934672,0.76668 1.966869,0.77906 0.05683,0.0218 0.08431,-0.39497 0.0376,-0.57034 -0.05971,-0.22419 -0.153772,-0.37193 -0.410681,-0.64501 -0.366846,-0.38994 -0.471524,-0.66827 -0.469389,-1.2481 0.0013,-0.38167 -0.02355,-0.50242 -0.140327,-0.6791 -0.03578,-0.0541 -0.07105,-0.10813 -0.07838,-0.11999 -0.02286,-0.037 0.09124,0.042 0.177147,0.12262 0.127201,0.11938 0.186001,0.21734 0.32257,0.53743 0.222657,0.52186 0.259141,0.55987 0.933933,0.97302 0.422713,0.25882 0.842709,0.73076 0.842709,0.94694 0,0.015 0.0085,0.0273 0.01889,0.0273 0.01039,0 0.01889,-0.008 0.01889,-0.0184 0,-0.0411 0.474236,-3.24207 0.485495,-3.27699 0.01726,-0.0535 0.01,-0.0949 0.288426,1.64296 0.136457,0.85169 0.254301,1.57322 0.261874,1.6034 0.01298,0.0517 0.01874,0.0446 0.09978,-0.12276 0.175573,-0.36256 0.398171,-0.57635 0.932643,-0.89572 0.482642,-0.2884 0.579257,-0.39252 0.763321,-0.82254 0.188157,-0.4396 0.263018,-0.55313 0.449219,-0.68124 0.09736,-0.067 0.09808,-0.0644 0.01606,0.0574 -0.135581,0.20148 -0.151515,0.27166 -0.154839,0.68201 -0.005,0.61215 -0.113231,0.89939 -0.484958,1.28656 -0.376269,0.39191 -0.507652,0.76909 -0.398775,1.14483 0.01695,0.0585 0.0057,0.0628 3.016521,-1.13051 0.133808,-0.053 0.12024,-0.0406 -0.531244,0.48788 -1.485087,1.20464 -1.986372,1.61247 -1.986374,1.61605 -2e-6,0.002 0.138092,0.004 0.306873,0.005 0.376292,0.001 0.516876,0.0375 0.892298,0.23049 0.85552,0.43975 0.815673,0.4292 1.371729,0.36309 0.423377,-0.0503 0.57042,-0.0426 0.743515,0.0389 0.09425,0.0444 0.09425,0.0444 -0.104038,0.0575 -0.260825,0.0172 -0.387446,0.0623 -0.600937,0.21433 -0.370803,0.26402 -0.854742,0.33966 -1.353615,0.21157 -0.63482,-0.16299 -1.410387,0.11559 -1.074011,0.38578 0.511516,0.41087 2.443143,1.9857 2.443143,1.99186 0,0.01 0.04948,0.0291 -1.085864,-0.4202 -0.540097,-0.21374 -1.160455,-0.45904 -1.378571,-0.54512 -0.218117,-0.0861 -0.449601,-0.17768 -0.514407,-0.20356 -0.136772,-0.0546 -0.131731,-0.0589 -0.160187,0.13634 -0.04963,0.34052 0.05278,0.60411 0.364919,0.93919 0.433869,0.46578 0.530586,0.70588 0.53552,1.32945 0.0033,0.41797 0.01706,0.48362 0.141737,0.67652 0.089,0.1377 0.07547,0.14565 -0.06,0.0353 -0.142033,-0.11571 -0.220401,-0.23839 -0.355183,-0.556 -0.212391,-0.5005 -0.300617,-0.60198 -0.774556,-0.89095 -0.587809,-0.35839 -0.826928,-0.59317 -0.982272,-0.96446 -0.04918,-0.11756 -0.05233,-0.12297 -0.06448,-0.11082 -0.0048,0.005 -0.128153,0.7562 -0.27405,1.66971 -0.303728,1.90174 -0.274152,1.73126 -0.28977,1.67037 z m 0.408116,-3.33296 c 1.850492,-0.3227 2.545234,-2.58317 1.194496,-3.88652 -1.351144,-1.30374 -3.624177,-0.46016 -3.826623,1.42015 -0.158003,1.46751 1.178514,2.71986 2.632127,2.46637 z m -0.562571,-0.2662 c -2.346356,-0.33197 -2.350357,-3.66954 -0.0047,-3.93885 1.443886,-0.16578 2.55098,1.37187 1.978253,2.74762 -0.316359,0.75994 -1.209893,1.29927 -1.973533,1.19123 z m 0.632634,-0.1389 c 2.110169,-0.5492 1.72401,-3.71127 -0.453229,-3.71127 -2.296052,0 -2.526392,3.39216 -0.254942,3.75446 0.142745,0.0228 0.550221,-0.002 0.708171,-0.0432 z m -0.764825,-0.0289 c -1.474977,-0.2724 -2.013941,-2.12971 -0.914391,-3.15106 1.122881,-1.04303 2.93902,-0.29768 3.032668,1.24462 0.07078,1.16574 -0.984804,2.11577 -2.118277,1.90644 z m 0.286646,20.77086 c -0.0067,-0.026 -0.118692,-0.76954 -0.248962,-1.6524 -0.13027,-0.88285 -0.24143,-1.62575 -0.247019,-1.65088 -0.0085,-0.0383 -0.02003,-0.023 -0.07113,0.0944 -0.174304,0.40064 -0.393375,0.60722 -1.099821,1.03714 -0.353082,0.21487 -0.454411,0.34254 -0.658577,0.82979 -0.12187,0.29085 -0.232436,0.45803 -0.369404,0.55858 -0.11976,0.0879 -0.127402,0.0806 -0.04478,-0.0426 0.129617,-0.19339 0.146013,-0.2704 0.149807,-0.70367 0.0053,-0.60562 0.104341,-0.85861 0.497805,-1.27164 0.344388,-0.3615 0.459339,-0.65287 0.398914,-1.01112 -0.0308,-0.18262 0.03319,-0.19448 -0.860425,0.1595 -1.743736,0.69074 -2.223387,0.87793 -2.230726,0.87059 -0.01169,-0.0117 0.117862,-0.11924 1.372271,-1.13946 0.63877,-0.51951 1.171302,-0.95651 1.183402,-0.97111 0.01874,-0.0226 -0.02323,-0.0265 -0.283269,-0.0265 -0.421296,0 -0.570011,-0.0468 -1.119182,-0.35201 -0.509401,-0.28313 -0.631102,-0.3088 -1.150081,-0.24261 -0.357284,0.0456 -0.51454,0.0411 -0.675778,-0.0192 -0.184337,-0.069 -0.185327,-0.0856 -0.0047,-0.0788 0.233569,0.009 0.429473,-0.0557 0.650041,-0.21413 0.369861,-0.26572 0.874469,-0.34217 1.371226,-0.20774 0.431249,0.1167 0.747218,0.0731 1.03393,-0.14279 0.07011,-0.0528 0.127471,-0.10764 0.127471,-0.1219 0,-0.0142 -0.562995,-0.48206 -1.251101,-1.03957 -1.441499,-1.1679 -1.338635,-1.08016 -1.203891,-1.02688 0.05712,0.0226 0.133607,0.052 0.169961,0.0653 0.03635,0.0134 0.423014,0.16581 0.859247,0.33878 0.905331,0.35897 1.934672,0.76668 1.966869,0.77906 0.05683,0.0218 0.08431,-0.39497 0.0376,-0.57034 -0.05971,-0.22419 -0.153772,-0.37193 -0.410681,-0.64501 -0.366846,-0.38994 -0.471524,-0.66827 -0.469389,-1.2481 0.0013,-0.38167 -0.02355,-0.50242 -0.140327,-0.6791 -0.03578,-0.0541 -0.07105,-0.10813 -0.07838,-0.11999 -0.02286,-0.037 0.09124,0.042 0.177147,0.12262 0.127201,0.11938 0.186001,0.21734 0.32257,0.53743 0.222657,0.52186 0.259141,0.55987 0.933933,0.97302 0.422713,0.25882 0.842709,0.73076 0.842709,0.94694 0,0.015 0.0085,0.0273 0.01889,0.0273 0.01039,0 0.01889,-0.008 0.01889,-0.0184 0,-0.0411 0.474236,-3.24207 0.485495,-3.27699 0.01726,-0.0535 0.01,-0.0949 0.288426,1.64296 0.136457,0.85169 0.254301,1.57322 0.261874,1.6034 0.01298,0.0517 0.01874,0.0446 0.09978,-0.12276 0.175573,-0.36256 0.398171,-0.57635 0.932643,-0.89572 0.482642,-0.2884 0.579257,-0.39252 0.763321,-0.82254 0.188157,-0.4396 0.263018,-0.55313 0.449219,-0.68124 0.09736,-0.067 0.09808,-0.0644 0.01606,0.0574 -0.135581,0.20148 -0.151515,0.27166 -0.154839,0.68201 -0.005,0.61215 -0.113231,0.89939 -0.484958,1.28656 -0.376269,0.39191 -0.507652,0.76909 -0.398775,1.14483 0.01695,0.0585 0.0057,0.0628 3.016521,-1.13051 0.133808,-0.053 0.12024,-0.0406 -0.531244,0.48788 -1.485087,1.20464 -1.986372,1.61247 -1.986374,1.61605 -2e-6,0.002 0.138092,0.004 0.306873,0.005 0.376292,0.001 0.516876,0.0375 0.892298,0.23049 0.85552,0.43975 0.815673,0.4292 1.371729,0.36309 0.423377,-0.0503 0.57042,-0.0426 0.743515,0.0389 0.09425,0.0444 0.09425,0.0444 -0.104038,0.0575 -0.260825,0.0172 -0.387446,0.0623 -0.600937,0.21433 -0.370803,0.26402 -0.854742,0.33966 -1.353615,0.21157 -0.63482,-0.16299 -1.410387,0.11559 -1.074011,0.38578 0.511516,0.41087 2.443143,1.9857 2.443143,1.99186 0,0.01 0.04948,0.0291 -1.085864,-0.4202 -0.540097,-0.21374 -1.160455,-0.45904 -1.378571,-0.54512 -0.218117,-0.0861 -0.449601,-0.17768 -0.514407,-0.20356 -0.136772,-0.0546 -0.131731,-0.0589 -0.160187,0.13634 -0.04963,0.34052 0.05278,0.60411 0.364919,0.93919 0.433869,0.46578 0.530586,0.70588 0.53552,1.32945 0.0033,0.41797 0.01706,0.48362 0.141737,0.67652 0.089,0.1377 0.07547,0.14565 -0.06,0.0353 -0.142033,-0.11571 -0.220401,-0.23839 -0.355183,-0.556 -0.212391,-0.5005 -0.300617,-0.60198 -0.774556,-0.89095 -0.587809,-0.35839 -0.826928,-0.59317 -0.982272,-0.96446 -0.04918,-0.11756 -0.05233,-0.12297 -0.06448,-0.11082 -0.0048,0.005 -0.128153,0.7562 -0.27405,1.66971 -0.303728,1.90174 -0.274152,1.73126 -0.28977,1.67037 z m 0.408116,-3.33296 c 1.850492,-0.3227 2.545234,-2.58317 1.194496,-3.88652 -1.351144,-1.30374 -3.624177,-0.46016 -3.826623,1.42015 -0.158003,1.46751 1.178514,2.71986 2.632127,2.46637 z m -0.562571,-0.2662 c -2.346356,-0.33197 -2.350357,-3.66954 -0.0047,-3.93885 1.443886,-0.16578 2.55098,1.37187 1.978253,2.74762 -0.316359,0.75994 -1.209893,1.29927 -1.973533,1.19123 z m 0.632634,-0.1389 c 2.110169,-0.5492 1.72401,-3.71127 -0.453229,-3.71127 -2.296052,0 -2.526392,3.39216 -0.254942,3.75446 0.142745,0.0228 0.550221,-0.002 0.708171,-0.0432 z m -0.764825,-0.0289 c -1.474977,-0.2724 -2.013941,-2.12971 -0.914391,-3.15106 1.122881,-1.04303 2.93902,-0.29768 3.032668,1.24462 0.07078,1.16574 -0.984804,2.11577 -2.118277,1.90644 z m 0.286646,20.77085 c -0.0067,-0.026 -0.118692,-0.76954 -0.248962,-1.6524 -0.13027,-0.88285 -0.24143,-1.62575 -0.247019,-1.65088 -0.0085,-0.0383 -0.02003,-0.023 -0.07113,0.0944 -0.174304,0.40064 -0.393375,0.60722 -1.099821,1.03714 -0.353082,0.21487 -0.454411,0.34254 -0.658577,0.82979 -0.12187,0.29085 -0.232436,0.45803 -0.369404,0.55858 -0.11976,0.0879 -0.127402,0.0806 -0.04478,-0.0426 0.129617,-0.19339 0.146013,-0.2704 0.149807,-0.70367 0.0053,-0.60562 0.104341,-0.85861 0.497805,-1.27164 0.344388,-0.3615 0.459339,-0.65287 0.398914,-1.01112 -0.0308,-0.18262 0.03319,-0.19448 -0.860425,0.1595 -1.743736,0.69074 -2.223387,0.87793 -2.230726,0.87059 -0.01169,-0.0117 0.117862,-0.11924 1.372271,-1.13946 0.63877,-0.51951 1.171302,-0.95651 1.183402,-0.97111 0.01874,-0.0226 -0.02323,-0.0265 -0.283269,-0.0265 -0.421296,0 -0.570011,-0.0468 -1.119182,-0.35201 -0.509401,-0.28313 -0.631102,-0.3088 -1.150081,-0.24261 -0.357284,0.0456 -0.51454,0.0411 -0.675778,-0.0192 -0.184337,-0.069 -0.185327,-0.0856 -0.0047,-0.0788 0.233569,0.009 0.429473,-0.0557 0.650041,-0.21413 0.369861,-0.26572 0.874469,-0.34217 1.371226,-0.20774 0.431249,0.1167 0.747218,0.0731 1.03393,-0.14279 0.07011,-0.0528 0.127471,-0.10764 0.127471,-0.1219 0,-0.0142 -0.562995,-0.48206 -1.251101,-1.03957 -1.441499,-1.1679 -1.338635,-1.08016 -1.203891,-1.02688 0.05712,0.0226 0.133607,0.052 0.169961,0.0653 0.03635,0.0134 0.423014,0.16581 0.859247,0.33878 0.905331,0.35897 1.934672,0.76668 1.966869,0.77906 0.05683,0.0218 0.08431,-0.39497 0.0376,-0.57034 -0.05971,-0.22419 -0.153772,-0.37193 -0.410681,-0.64501 -0.366846,-0.38994 -0.471524,-0.66827 -0.469389,-1.2481 0.0013,-0.38167 -0.02355,-0.50242 -0.140327,-0.6791 -0.03578,-0.0541 -0.07105,-0.10813 -0.07838,-0.11999 -0.02286,-0.037 0.09124,0.042 0.177147,0.12262 0.127201,0.11938 0.186001,0.21734 0.32257,0.53743 0.222657,0.52186 0.259141,0.55987 0.933933,0.97302 0.422713,0.25882 0.842709,0.73076 0.842709,0.94694 0,0.015 0.0085,0.0273 0.01889,0.0273 0.01039,0 0.01889,-0.008 0.01889,-0.0184 0,-0.0411 0.474236,-3.24207 0.485495,-3.27699 0.01726,-0.0535 0.01,-0.0949 0.288426,1.64296 0.136457,0.85169 0.254301,1.57322 0.261874,1.6034 0.01298,0.0517 0.01874,0.0446 0.09978,-0.12276 0.175573,-0.36256 0.398171,-0.57635 0.932643,-0.89572 0.482642,-0.2884 0.579257,-0.39252 0.763321,-0.82254 0.188157,-0.4396 0.263018,-0.55313 0.449219,-0.68124 0.09736,-0.067 0.09808,-0.0644 0.01606,0.0574 -0.135581,0.20148 -0.151515,0.27166 -0.154839,0.68201 -0.005,0.61215 -0.113231,0.89939 -0.484958,1.28656 -0.376269,0.39191 -0.507652,0.76909 -0.398775,1.14483 0.01695,0.0585 0.0057,0.0628 3.016521,-1.13051 0.133808,-0.053 0.12024,-0.0406 -0.531244,0.48788 -1.485087,1.20464 -1.986372,1.61247 -1.986374,1.61605 -2e-6,0.002 0.138092,0.004 0.306873,0.005 0.376292,0.001 0.516876,0.0375 0.892298,0.23049 0.85552,0.43975 0.815673,0.4292 1.371729,0.36309 0.423377,-0.0503 0.57042,-0.0426 0.743515,0.0389 0.09425,0.0444 0.09425,0.0444 -0.104038,0.0575 -0.260825,0.0172 -0.387446,0.0623 -0.600937,0.21433 -0.370803,0.26402 -0.854742,0.33966 -1.353615,0.21157 -0.63482,-0.16299 -1.410387,0.11559 -1.074011,0.38578 0.511516,0.41087 2.443143,1.9857 2.443143,1.99186 0,0.01 0.04948,0.0291 -1.085864,-0.4202 -0.540097,-0.21374 -1.160455,-0.45904 -1.378571,-0.54512 -0.218117,-0.0861 -0.449601,-0.17768 -0.514407,-0.20356 -0.136772,-0.0546 -0.131731,-0.0589 -0.160187,0.13634 -0.04963,0.34052 0.05278,0.60411 0.364919,0.93919 0.433869,0.46578 0.530586,0.70588 0.53552,1.32945 0.0033,0.41797 0.01706,0.48362 0.141737,0.67652 0.089,0.1377 0.07547,0.14565 -0.06,0.0353 -0.142033,-0.11571 -0.220401,-0.23839 -0.355183,-0.556 -0.212391,-0.5005 -0.300617,-0.60198 -0.774556,-0.89095 -0.587809,-0.35839 -0.826928,-0.59317 -0.982272,-0.96446 -0.04918,-0.11756 -0.05233,-0.12297 -0.06448,-0.11082 -0.0048,0.005 -0.128153,0.7562 -0.27405,1.66971 -0.303728,1.90174 -0.274152,1.73126 -0.28977,1.67037 z m 0.408116,-3.33296 c 1.850492,-0.3227 2.545234,-2.58317 1.194496,-3.88652 -1.351144,-1.30374 -3.624177,-0.46016 -3.826623,1.42015 -0.158003,1.46751 1.178514,2.71986 2.632127,2.46637 z m -0.562571,-0.2662 c -2.346356,-0.33197 -2.350357,-3.66954 -0.0047,-3.93885 1.443886,-0.16578 2.55098,1.37187 1.978253,2.74762 -0.316359,0.75994 -1.209893,1.29927 -1.973533,1.19123 z m 0.632634,-0.1389 c 2.110169,-0.5492 1.72401,-3.71127 -0.453229,-3.71127 -2.296052,0 -2.526392,3.39216 -0.254942,3.75446 0.142745,0.0228 0.550221,-0.002 0.708171,-0.0432 z m -0.764825,-0.0289 c -1.474977,-0.2724 -2.013941,-2.12971 -0.914391,-3.15106 1.122881,-1.04303 2.93902,-0.29768 3.032668,1.24462 0.07078,1.16574 -0.984804,2.11577 -2.118277,1.90644 z m 89.899684,-30.24083 c 0.007,-0.026 0.11869,-0.76954 0.24896,-1.6524 0.13027,-0.88285 0.24143,-1.62575 0.24702,-1.65088 0.008,-0.0383 0.02,-0.023 0.0711,0.0944 0.1743,0.40064 0.39337,0.60722 1.09982,1.03714 0.35308,0.21487 0.45441,0.34254 0.65858,0.82979 0.12187,0.29085 0.23243,0.45803 0.3694,0.55858 0.11976,0.0879 0.1274,0.0806 0.0448,-0.0426 -0.12962,-0.19339 -0.14601,-0.2704 -0.14981,-0.70367 -0.005,-0.60562 -0.10434,-0.85861 -0.4978,-1.27164 -0.34439,-0.3615 -0.45934,-0.65287 -0.39891,-1.01112 0.0308,-0.18262 -0.0332,-0.19448 0.86042,0.1595 1.74374,0.69074 2.22339,0.87793 2.23073,0.87059 0.0117,-0.0117 -0.11787,-0.11924 -1.37227,-1.13946 -0.63877,-0.51951 -1.17131,-0.95651 -1.18341,-0.97111 -0.0187,-0.0226 0.0232,-0.0265 0.28327,-0.0265 0.4213,0 0.57001,-0.0468 1.11918,-0.35201 0.50941,-0.28313 0.63111,-0.3088 1.15009,-0.24261 0.35728,0.0456 0.51454,0.0411 0.67577,-0.0192 0.18434,-0.069 0.18533,-0.0856 0.005,-0.0788 -0.23357,0.009 -0.42947,-0.0557 -0.65004,-0.21413 -0.36986,-0.26572 -0.87447,-0.34217 -1.37122,-0.20774 -0.43125,0.1167 -0.74722,0.0731 -1.03393,-0.14279 -0.0701,-0.0528 -0.12747,-0.10764 -0.12747,-0.1219 0,-0.0142 0.56299,-0.48206 1.2511,-1.03957 1.4415,-1.1679 1.33863,-1.08016 1.20389,-1.02688 -0.0571,0.0226 -0.13361,0.052 -0.16996,0.0653 -0.0363,0.0134 -0.42302,0.16581 -0.85925,0.33878 -0.90533,0.35897 -1.93467,0.76668 -1.96687,0.77906 -0.0568,0.0218 -0.0843,-0.39497 -0.0376,-0.57034 0.0597,-0.22419 0.15377,-0.37193 0.41068,-0.64501 0.36685,-0.38994 0.47153,-0.66827 0.46939,-1.2481 -0.001,-0.38167 0.0236,-0.50242 0.14033,-0.6791 0.0358,-0.0541 0.0711,-0.10813 0.0784,-0.11999 0.0229,-0.037 -0.0912,0.042 -0.17715,0.12262 -0.1272,0.11938 -0.186,0.21734 -0.32257,0.53743 -0.22266,0.52186 -0.25914,0.55987 -0.93393,0.97302 -0.42272,0.25882 -0.84271,0.73076 -0.84271,0.94694 0,0.015 -0.008,0.0273 -0.0189,0.0273 -0.0104,0 -0.0189,-0.008 -0.0189,-0.0184 0,-0.0411 -0.47424,-3.24207 -0.4855,-3.27699 -0.0173,-0.0535 -0.01,-0.0949 -0.28842,1.64296 -0.13646,0.85169 -0.2543,1.57322 -0.26188,1.6034 -0.013,0.0517 -0.0187,0.0446 -0.0998,-0.12276 -0.17557,-0.36256 -0.39817,-0.57635 -0.93264,-0.89572 -0.48264,-0.2884 -0.57926,-0.39252 -0.76332,-0.82254 -0.18816,-0.4396 -0.26302,-0.55313 -0.44922,-0.68124 -0.0974,-0.067 -0.0981,-0.0644 -0.0161,0.0574 0.13558,0.20148 0.15152,0.27166 0.15484,0.68201 0.005,0.61215 0.11323,0.89939 0.48496,1.28656 0.37627,0.39191 0.50765,0.76909 0.39877,1.14483 -0.017,0.0585 -0.006,0.0628 -3.01652,-1.13051 -0.13381,-0.053 -0.12024,-0.0406 0.53125,0.48788 1.48508,1.20464 1.98637,1.61247 1.98637,1.61605 0,0.002 -0.13809,0.004 -0.30687,0.005 -0.3763,0.001 -0.51688,0.0375 -0.8923,0.23049 -0.85552,0.43975 -0.81567,0.4292 -1.37173,0.36309 -0.42338,-0.0503 -0.57042,-0.0426 -0.74352,0.0389 -0.0942,0.0444 -0.0942,0.0444 0.10404,0.0575 0.26083,0.0172 0.38745,0.0623 0.60094,0.21433 0.3708,0.26402 0.85474,0.33966 1.35361,0.21157 0.63482,-0.16299 1.41039,0.11559 1.07402,0.38578 -0.51152,0.41087 -2.44315,1.9857 -2.44315,1.99186 0,0.01 -0.0495,0.0291 1.08587,-0.4202 0.54009,-0.21374 1.16045,-0.45904 1.37857,-0.54512 0.21811,-0.0861 0.4496,-0.17768 0.5144,-0.20356 0.13678,-0.0546 0.13174,-0.0589 0.16019,0.13634 0.0496,0.34052 -0.0528,0.60411 -0.36492,0.93919 -0.43387,0.46578 -0.53058,0.70588 -0.53552,1.32945 -0.003,0.41797 -0.0171,0.48362 -0.14173,0.67652 -0.089,0.1377 -0.0755,0.14565 0.06,0.0353 0.14203,-0.11571 0.2204,-0.23839 0.35518,-0.556 0.21239,-0.5005 0.30062,-0.60198 0.77455,-0.89095 0.58781,-0.35839 0.82693,-0.59317 0.98228,-0.96446 0.0492,-0.11756 0.0523,-0.12297 0.0645,-0.11082 0.005,0.005 0.12815,0.7562 0.27405,1.66971 0.30372,1.90174 0.27415,1.73126 0.28977,1.67037 z m -0.40812,-3.33296 c -1.85049,-0.3227 -2.54523,-2.58317 -1.19449,-3.88652 1.35114,-1.30374 3.62417,-0.46016 3.82662,1.42015 0.158,1.46751 -1.17851,2.71986 -2.63213,2.46637 z m 0.56257,-0.2662 c 2.34636,-0.33197 2.35036,-3.66954 0.005,-3.93885 -1.44388,-0.16578 -2.55098,1.37187 -1.97825,2.74762 0.31636,0.75994 1.20989,1.29927 1.97353,1.19123 z m -0.63263,-0.1389 c -2.11017,-0.5492 -1.72401,-3.71127 0.45323,-3.71127 2.29605,0 2.52639,3.39216 0.25494,3.75446 -0.14274,0.0228 -0.55022,-0.002 -0.70817,-0.0432 z m 0.76482,-0.0289 c 1.47498,-0.2724 2.01395,-2.12971 0.9144,-3.15106 -1.12289,-1.04303 -2.93902,-0.29768 -3.03267,1.24462 -0.0708,1.16574 0.9848,2.11577 2.11827,1.90644 z m -0.28664,20.77086 c 0.007,-0.026 0.11869,-0.76954 0.24896,-1.6524 0.13027,-0.88285 0.24143,-1.62575 0.24702,-1.65088 0.008,-0.0383 0.02,-0.023 0.0711,0.0944 0.1743,0.40064 0.39337,0.60722 1.09982,1.03714 0.35308,0.21487 0.45441,0.34254 0.65858,0.82979 0.12187,0.29085 0.23243,0.45803 0.3694,0.55858 0.11976,0.0879 0.1274,0.0806 0.0448,-0.0426 -0.12962,-0.19339 -0.14601,-0.2704 -0.14981,-0.70367 -0.005,-0.60562 -0.10434,-0.85861 -0.4978,-1.27164 -0.34439,-0.3615 -0.45934,-0.65287 -0.39891,-1.01112 0.0308,-0.18262 -0.0332,-0.19448 0.86042,0.1595 1.74374,0.69074 2.22339,0.87793 2.23073,0.87059 0.0117,-0.0117 -0.11787,-0.11924 -1.37227,-1.13946 -0.63877,-0.51951 -1.17131,-0.95651 -1.18341,-0.97111 -0.0187,-0.0226 0.0232,-0.0265 0.28327,-0.0265 0.4213,0 0.57001,-0.0468 1.11918,-0.35201 0.50941,-0.28313 0.63111,-0.3088 1.15009,-0.24261 0.35728,0.0456 0.51454,0.0411 0.67577,-0.0192 0.18434,-0.069 0.18533,-0.0856 0.005,-0.0788 -0.23357,0.009 -0.42947,-0.0557 -0.65004,-0.21413 -0.36986,-0.26572 -0.87447,-0.34217 -1.37122,-0.20774 -0.43125,0.1167 -0.74722,0.0731 -1.03393,-0.14279 -0.0701,-0.0528 -0.12747,-0.10764 -0.12747,-0.1219 0,-0.0142 0.56299,-0.48206 1.2511,-1.03957 1.4415,-1.1679 1.33863,-1.08016 1.20389,-1.02688 -0.0571,0.0226 -0.13361,0.052 -0.16996,0.0653 -0.0363,0.0134 -0.42302,0.16581 -0.85925,0.33878 -0.90533,0.35897 -1.93467,0.76668 -1.96687,0.77906 -0.0568,0.0218 -0.0843,-0.39497 -0.0376,-0.57034 0.0597,-0.22419 0.15377,-0.37193 0.41068,-0.64501 0.36685,-0.38994 0.47153,-0.66827 0.46939,-1.2481 -0.001,-0.38167 0.0236,-0.50242 0.14033,-0.6791 0.0358,-0.0541 0.0711,-0.10813 0.0784,-0.11999 0.0229,-0.037 -0.0912,0.042 -0.17715,0.12262 -0.1272,0.11938 -0.186,0.21734 -0.32257,0.53743 -0.22266,0.52186 -0.25914,0.55987 -0.93393,0.97302 -0.42272,0.25882 -0.84271,0.73076 -0.84271,0.94694 0,0.015 -0.008,0.0273 -0.0189,0.0273 -0.0104,0 -0.0189,-0.008 -0.0189,-0.0184 0,-0.0411 -0.47424,-3.24207 -0.4855,-3.27699 -0.0173,-0.0535 -0.01,-0.0949 -0.28842,1.64296 -0.13646,0.85169 -0.2543,1.57322 -0.26188,1.6034 -0.013,0.0517 -0.0187,0.0446 -0.0998,-0.12276 -0.17557,-0.36256 -0.39817,-0.57635 -0.93264,-0.89572 -0.48264,-0.2884 -0.57926,-0.39252 -0.76332,-0.82254 -0.18816,-0.4396 -0.26302,-0.55313 -0.44922,-0.68124 -0.0974,-0.067 -0.0981,-0.0644 -0.0161,0.0574 0.13558,0.20148 0.15152,0.27166 0.15484,0.68201 0.005,0.61215 0.11323,0.89939 0.48496,1.28656 0.37627,0.39191 0.50765,0.76909 0.39877,1.14483 -0.017,0.0585 -0.006,0.0628 -3.01652,-1.13051 -0.13381,-0.053 -0.12024,-0.0406 0.53125,0.48788 1.48508,1.20464 1.98637,1.61247 1.98637,1.61605 0,0.002 -0.13809,0.004 -0.30687,0.005 -0.3763,0.001 -0.51688,0.0375 -0.8923,0.23049 -0.85552,0.43975 -0.81567,0.4292 -1.37173,0.36309 -0.42338,-0.0503 -0.57042,-0.0426 -0.74352,0.0389 -0.0942,0.0444 -0.0942,0.0444 0.10404,0.0575 0.26083,0.0172 0.38745,0.0623 0.60094,0.21433 0.3708,0.26402 0.85474,0.33966 1.35361,0.21157 0.63482,-0.16299 1.41039,0.11559 1.07402,0.38578 -0.51152,0.41087 -2.44315,1.9857 -2.44315,1.99186 0,0.01 -0.0495,0.0291 1.08587,-0.4202 0.54009,-0.21374 1.16045,-0.45904 1.37857,-0.54512 0.21811,-0.0861 0.4496,-0.17768 0.5144,-0.20356 0.13678,-0.0546 0.13174,-0.0589 0.16019,0.13634 0.0496,0.34052 -0.0528,0.60411 -0.36492,0.93919 -0.43387,0.46578 -0.53058,0.70588 -0.53552,1.32945 -0.003,0.41797 -0.0171,0.48362 -0.14173,0.67652 -0.089,0.1377 -0.0755,0.14565 0.06,0.0353 0.14203,-0.11571 0.2204,-0.23839 0.35518,-0.556 0.21239,-0.5005 0.30062,-0.60198 0.77455,-0.89095 0.58781,-0.35839 0.82693,-0.59317 0.98228,-0.96446 0.0492,-0.11756 0.0523,-0.12297 0.0645,-0.11082 0.005,0.005 0.12815,0.7562 0.27405,1.66971 0.30372,1.90174 0.27415,1.73126 0.28977,1.67037 z m -0.40812,-3.33296 c -1.85049,-0.3227 -2.54523,-2.58317 -1.19449,-3.88652 1.35114,-1.30374 3.62417,-0.46016 3.82662,1.42015 0.158,1.46751 -1.17851,2.71986 -2.63213,2.46637 z m 0.56257,-0.2662 c 2.34636,-0.33197 2.35036,-3.66954 0.005,-3.93885 -1.44388,-0.16578 -2.55098,1.37187 -1.97825,2.74762 0.31636,0.75994 1.20989,1.29927 1.97353,1.19123 z m -0.63263,-0.1389 c -2.11017,-0.5492 -1.72401,-3.71127 0.45323,-3.71127 2.29605,0 2.52639,3.39216 0.25494,3.75446 -0.14274,0.0228 -0.55022,-0.002 -0.70817,-0.0432 z m 0.76482,-0.0289 c 1.47498,-0.2724 2.01395,-2.12971 0.9144,-3.15106 -1.12289,-1.04303 -2.93902,-0.29768 -3.03267,1.24462 -0.0708,1.16574 0.9848,2.11577 2.11827,1.90644 z m -0.28664,20.77085 c 0.007,-0.026 0.11869,-0.76954 0.24896,-1.6524 0.13027,-0.88285 0.24143,-1.62575 0.24702,-1.65088 0.008,-0.0383 0.02,-0.023 0.0711,0.0944 0.1743,0.40064 0.39337,0.60722 1.09982,1.03714 0.35308,0.21487 0.45441,0.34254 0.65858,0.82979 0.12187,0.29085 0.23243,0.45803 0.3694,0.55858 0.11976,0.0879 0.1274,0.0806 0.0448,-0.0426 -0.12962,-0.19339 -0.14601,-0.2704 -0.14981,-0.70367 -0.005,-0.60562 -0.10434,-0.85861 -0.4978,-1.27164 -0.34439,-0.3615 -0.45934,-0.65287 -0.39891,-1.01112 0.0308,-0.18262 -0.0332,-0.19448 0.86042,0.1595 1.74374,0.69074 2.22339,0.87793 2.23073,0.87059 0.0117,-0.0117 -0.11787,-0.11924 -1.37227,-1.13946 -0.63877,-0.51951 -1.17131,-0.95651 -1.18341,-0.97111 -0.0187,-0.0226 0.0232,-0.0265 0.28327,-0.0265 0.4213,0 0.57001,-0.0468 1.11918,-0.35201 0.50941,-0.28313 0.63111,-0.3088 1.15009,-0.24261 0.35728,0.0456 0.51454,0.0411 0.67577,-0.0192 0.18434,-0.069 0.18533,-0.0856 0.005,-0.0788 -0.23357,0.009 -0.42947,-0.0557 -0.65004,-0.21413 -0.36986,-0.26572 -0.87447,-0.34217 -1.37122,-0.20774 -0.43125,0.1167 -0.74722,0.0731 -1.03393,-0.14279 -0.0701,-0.0528 -0.12747,-0.10764 -0.12747,-0.1219 0,-0.0142 0.56299,-0.48206 1.2511,-1.03957 1.4415,-1.1679 1.33863,-1.08016 1.20389,-1.02688 -0.0571,0.0226 -0.13361,0.052 -0.16996,0.0653 -0.0363,0.0134 -0.42302,0.16581 -0.85925,0.33878 -0.90533,0.35897 -1.93467,0.76668 -1.96687,0.77906 -0.0568,0.0218 -0.0843,-0.39497 -0.0376,-0.57034 0.0597,-0.22419 0.15377,-0.37193 0.41068,-0.64501 0.36685,-0.38994 0.47153,-0.66827 0.46939,-1.2481 -0.001,-0.38167 0.0236,-0.50242 0.14033,-0.6791 0.0358,-0.0541 0.0711,-0.10813 0.0784,-0.11999 0.0229,-0.037 -0.0912,0.042 -0.17715,0.12262 -0.1272,0.11938 -0.186,0.21734 -0.32257,0.53743 -0.22266,0.52186 -0.25914,0.55987 -0.93393,0.97302 -0.42272,0.25882 -0.84271,0.73076 -0.84271,0.94694 0,0.015 -0.008,0.0273 -0.0189,0.0273 -0.0104,0 -0.0189,-0.008 -0.0189,-0.0184 0,-0.0411 -0.47424,-3.24207 -0.4855,-3.27699 -0.0173,-0.0535 -0.01,-0.0949 -0.28842,1.64296 -0.13646,0.85169 -0.2543,1.57322 -0.26188,1.6034 -0.013,0.0517 -0.0187,0.0446 -0.0998,-0.12276 -0.17557,-0.36256 -0.39817,-0.57635 -0.93264,-0.89572 -0.48264,-0.2884 -0.57926,-0.39252 -0.76332,-0.82254 -0.18816,-0.4396 -0.26302,-0.55313 -0.44922,-0.68124 -0.0974,-0.067 -0.0981,-0.0644 -0.0161,0.0574 0.13558,0.20148 0.15152,0.27166 0.15484,0.68201 0.005,0.61215 0.11323,0.89939 0.48496,1.28656 0.37627,0.39191 0.50765,0.76909 0.39877,1.14483 -0.017,0.0585 -0.006,0.0628 -3.01652,-1.13051 -0.13381,-0.053 -0.12024,-0.0406 0.53125,0.48788 1.48508,1.20464 1.98637,1.61247 1.98637,1.61605 0,0.002 -0.13809,0.004 -0.30687,0.005 -0.3763,0.001 -0.51688,0.0375 -0.8923,0.23049 -0.85552,0.43975 -0.81567,0.4292 -1.37173,0.36309 -0.42338,-0.0503 -0.57042,-0.0426 -0.74352,0.0389 -0.0942,0.0444 -0.0942,0.0444 0.10404,0.0575 0.26083,0.0172 0.38745,0.0623 0.60094,0.21433 0.3708,0.26402 0.85474,0.33966 1.35361,0.21157 0.63482,-0.16299 1.41039,0.11559 1.07402,0.38578 -0.51152,0.41087 -2.44315,1.9857 -2.44315,1.99186 0,0.01 -0.0495,0.0291 1.08587,-0.4202 0.54009,-0.21374 1.16045,-0.45904 1.37857,-0.54512 0.21811,-0.0861 0.4496,-0.17768 0.5144,-0.20356 0.13678,-0.0546 0.13174,-0.0589 0.16019,0.13634 0.0496,0.34052 -0.0528,0.60411 -0.36492,0.93919 -0.43387,0.46578 -0.53058,0.70588 -0.53552,1.32945 -0.003,0.41797 -0.0171,0.48362 -0.14173,0.67652 -0.089,0.1377 -0.0755,0.14565 0.06,0.0353 0.14203,-0.11571 0.2204,-0.23839 0.35518,-0.556 0.21239,-0.5005 0.30062,-0.60198 0.77455,-0.89095 0.58781,-0.35839 0.82693,-0.59317 0.98228,-0.96446 0.0492,-0.11756 0.0523,-0.12297 0.0645,-0.11082 0.005,0.005 0.12815,0.7562 0.27405,1.66971 0.30372,1.90174 0.27415,1.73126 0.28977,1.67037 z m -0.40812,-3.33296 c -1.85049,-0.3227 -2.54523,-2.58317 -1.19449,-3.88652 1.35114,-1.30374 3.62417,-0.46016 3.82662,1.42015 0.158,1.46751 -1.17851,2.71986 -2.63213,2.46637 z m 0.56257,-0.2662 c 2.34636,-0.33197 2.35036,-3.66954 0.005,-3.93885 -1.44388,-0.16578 -2.55098,1.37187 -1.97825,2.74762 0.31636,0.75994 1.20989,1.29927 1.97353,1.19123 z m -0.63263,-0.1389 c -2.11017,-0.5492 -1.72401,-3.71127 0.45323,-3.71127 2.29605,0 2.52639,3.39216 0.25494,3.75446 -0.14274,0.0228 -0.55022,-0.002 -0.70817,-0.0432 z m 0.76482,-0.0289 c 1.47498,-0.2724 2.01395,-2.12971 0.9144,-3.15106 -1.12289,-1.04303 -2.93902,-0.29768 -3.03267,1.24462 -0.0708,1.16574 0.9848,2.11577 2.11827,1.90644 z"
       id="path10"
       transform="translate(-3.0237901e-7,8.331126)" /></g></svg>
